<svg xmlns="http://www.w3.org/2000/svg" version="1.1" xmlns:xlink="http://www.w3.org/1999/xlink" width="2000" height="361" viewBox="0 0 2000 361"><svg xml:space="preserve" width="2000" height="361" data-version="2" data-id="lg_Fjnz5sJFplw5lO5u5E" viewBox="0 0 566 102" x="0" y="0">
    <path d="M131.05 63.19q3.28 1.85 6.66 3.34 3.37 1.48 7 2.5 3.62 1.03 7.62 1.57 3.99.54 8.5.54 5.44 0 9.26-.72 3.82-.71 6.23-1.97 2.41-1.25 3.51-2.98 1.1-1.74 1.1-3.79 0-3.27-2.74-5.18-2.74-1.91-8.45-1.91-2.5 0-5.28.33-2.78.32-5.61.71-2.84.38-5.6.71-2.75.33-5.19.33-4.05 0-7.77-1.04-3.72-1.04-6.59-3.13-2.88-2.08-4.58-5.2-1.69-3.13-1.69-7.29 0-2.47.67-4.9.68-2.43 2.16-4.65 1.49-2.22 3.84-4.13 2.35-1.91 5.69-3.3 3.34-1.39 7.72-2.18 4.37-.79 9.97-.79 4.05 0 8.14.45 4.08.44 7.96 1.25t7.47 1.95q3.58 1.14 6.67 2.53l-5.36 9.87q-2.55-1.12-5.48-2.06-2.93-.95-6.13-1.64-3.21-.7-6.62-1.1-3.41-.41-6.96-.41-5.05 0-8.31.74-3.26.73-5.19 1.87-1.93 1.13-2.68 2.54-.76 1.41-.76 2.8 0 2.7 2.43 4.42 2.43 1.71 7.41 1.71 2.01 0 4.61-.29 2.6-.29 5.48-.63 2.87-.35 5.86-.64 2.99-.29 5.81-.29 5.32 0 9.43 1.2 4.11 1.19 6.88 3.41 2.78 2.22 4.21 5.36 1.43 3.15 1.43 7.04 0 5.21-2.42 9.28-2.41 4.07-6.86 6.87-4.46 2.79-10.74 4.24-6.29 1.45-14.01 1.45-5.09 0-9.95-.64-4.86-.64-9.31-1.81-4.46-1.18-8.49-2.82t-7.47-3.61Z"></path>
    <rect width="69.25" height="61.92" x="-34.625" y="-30.96" fill="none" rx="0" ry="0" transform="matrix(1 0 0 1 159.655 51.52)"></rect>
    <path d="M203.69 50.81q0-6.83 2.51-12.5 2.5-5.67 7.04-9.74 4.53-4.07 10.87-6.31 6.35-2.24 14.06-2.24 7.68 0 14.05 2.24 6.36 2.24 10.89 6.31 4.53 4.07 7.04 9.74t2.51 12.5q0 6.09-1.99 11.28-1.98 5.19-5.61 9.2l10.84 9.84h-15.51l-3.74-3.4q-3.93 2.08-8.56 3.16-4.63 1.09-9.92 1.09-7.71 0-14.06-2.3-6.34-2.3-10.87-6.42-4.54-4.13-7.04-9.86-2.51-5.73-2.51-12.59m12.23 0q0 4.66 1.67 8.41 1.68 3.74 4.67 6.38 2.99 2.64 7.06 4.07 4.07 1.43 8.85 1.43 5.13 0 9.38-1.62l-17.28-15.66h15.5l10.5 9.52q1.96-2.5 3.06-5.65 1.1-3.14 1.1-6.88 0-4.67-1.7-8.37-1.69-3.71-4.66-6.27-2.97-2.57-7.04-3.92t-8.86-1.35q-4.78 0-8.85 1.35-4.07 1.35-7.06 3.92-2.99 2.56-4.67 6.27-1.67 3.7-1.67 8.37"></path>
    <rect width="72.21" height="61.96" x="-36.105" y="-30.98" fill="none" rx="0" ry="0" transform="matrix(1 0 0 1 240.295 51.5)"></rect>
    <path d="M283.96 20.83h12.23v33.22q0 4.09 1.12 7.27 1.12 3.18 3.34 5.38 2.21 2.2 5.49 3.34 3.28 1.13 7.64 1.13 4.32 0 7.62-1.13 3.3-1.14 5.51-3.34 2.22-2.2 3.34-5.38 1.12-3.18 1.12-7.27V20.83h12.23v34.68q0 5.94-2.01 10.8-2 4.86-5.82 8.34-3.82 3.47-9.36 5.36-5.53 1.89-12.63 1.89-7.1 0-12.63-1.89-5.54-1.89-9.36-5.36-3.82-3.48-5.82-8.34-2.01-4.86-2.01-10.8Z"></path>
    <rect width="59.64" height="61.07" x="-29.82" y="-30.535" fill="none" rx="0" ry="0" transform="matrix(1 0 0 1 314.28 51.865)"></rect>
    <path d="M379.05 20.83h12.96l29.16 60.3h-12.84l-4.83-10.15h-35.21l-4.67 10.15h-12.89Zm19.63 40.08-13.04-27.38-12.69 27.38Z"></path>
    <rect width="70.44" height="60.3" x="-35.22" y="-30.15" fill="none" rx="0" ry="0" transform="matrix(1 0 0 1 386.45 51.48)"></rect>
    <path d="M430.54 20.83h22.11q9.68 0 16.82 2.09 7.13 2.08 11.82 5.96 4.69 3.87 6.98 9.41 2.3 5.54 2.3 12.44 0 6.56-2.28 12.13-2.28 5.58-6.94 9.65-4.67 4.06-11.81 6.36-7.13 2.29-16.82 2.29l-22.18-.03Zm25.12 49.73q5.47 0 9.6-1.41t6.89-3.99q2.75-2.59 4.14-6.25 1.39-3.67 1.39-8.18 0-4.44-1.39-8-1.39-3.57-4.14-6.06-2.76-2.49-6.89-3.84-4.13-1.35-9.6-1.35h-12.89v39.08Z"></path>
    <rect width="60.03" height="60.33" x="-30.015" y="-30.165" fill="none" rx="0" ry="0" transform="matrix(1 0 0 1 461.055 51.495)"></rect>
    <path d="m521.31 66.2-26.35-45.37h13.85l18.56 34.3 18.32-34.3h13.85l-26 45.29v15.01h-12.23Z"></path>
    <rect width="64.58" height="60.3" x="-32.29" y="-30.15" fill="none" rx="0" ry="0" transform="matrix(1 0 0 1 527.75 51.48)"></rect>
    <path d="M54.966 99.886C27.643 99.866 5.494 77.728 5.46 50.404 5.48 23.064 27.627.901 54.966.86c27.34.042 49.487 22.206 49.508 49.545-.035 27.319-22.176 49.455-49.495 49.482m0-90.397c-22.581.028-40.876 18.334-40.89 40.915 0 22.583 18.307 40.89 40.89 40.89 22.583 0 40.89-18.307 40.89-40.89-.02-22.578-18.312-40.88-40.89-40.915"></path>
    <path d="M83.176 38.626a4.102 4.102 0 0 0-5.77 1.092l-7.3 10.649-5.068-7.35-.25-.415L61.602 38l-1.58-2.345L58.428 38l-1.179 1.719h-.025l-7.3 10.649-5.017-7.35-5.055-7.363-1.593 2.358-3.198 4.666-.239.338-9.194 13.371a4.164 4.164 0 1 0 6.912 4.641l7.3-10.624 5.042 7.35.263.402 3.174 4.59 1.593 2.346 1.593-2.308 1.166-1.756h.038l7.275-10.624 5.054 7.35 5.055 7.338 1.593-2.308 3.199-4.703.238-.327 9.169-13.358a4.177 4.177 0 0 0-1.129-5.77"></path>
</svg></svg>

