<svg xmlns="http://www.w3.org/2000/svg" viewBox="0 0 110 110">
  <!-- Background circle -->
  <circle cx="55" cy="55" r="55" fill="#3b82f6"/>
  
  <!-- Squady wave icon (S shape) -->
  <path d="M83.176 43.626a4.102 4.102 0 0 0-5.77 1.092l-7.3 10.649-5.068-7.35-.25-.415L61.602 43l-1.58-2.345L58.428 43l-1.179 1.719h-.025l-7.3 10.649-5.017-7.35-5.055-7.363-1.593 2.358-3.198 4.666-.239.338-9.194 13.371a4.164 4.164 0 1 0 6.912 4.641l7.3-10.624 5.042 7.35.263.402 3.174 4.59 1.593 2.346 1.593-2.308 1.166-1.756h.038l7.275-10.624 5.054 7.35 5.055 7.338 1.593-2.308 3.199-4.703.238-.327 9.169-13.358a4.177 4.177 0 0 0-1.129-5.77" fill="white"/>
</svg>

