<svg xmlns="http://www.w3.org/2000/svg" version="1.1" xmlns:xlink="http://www.w3.org/1999/xlink" width="110" height="110" viewBox="0 0 110 110">
  <!-- Squady Logo Icon - Circle with S Wave -->
  <circle cx="55" cy="55" r="55" fill="#3b82f6"/>
  <path d="M54.966 99.886C27.643 99.866 5.494 77.728 5.46 50.404 5.48 23.064 27.627.901 54.966.86c27.34.042 49.487 22.206 49.508 49.545-.035 27.319-22.176 49.455-49.495 49.482m0-90.397c-22.581.028-40.876 18.334-40.89 40.915 0 22.583 18.307 40.89 40.89 40.89 22.583 0 40.89-18.307 40.89-40.89-.02-22.578-18.312-40.88-40.89-40.915" fill="white"/>
  <path d="M83.176 38.626a4.102 4.102 0 0 0-5.77 1.092l-7.3 10.649-5.068-7.35-.25-.415L61.602 38l-1.58-2.345L58.428 38l-1.179 1.719h-.025l-7.3 10.649-5.017-7.35-5.055-7.363-1.593 2.358-3.198 4.666-.239.338-9.194 13.371a4.164 4.164 0 1 0 6.912 4.641l7.3-10.624 5.042 7.35.263.402 3.174 4.59 1.593 2.346 1.593-2.308 1.166-1.756h.038l7.275-10.624 5.054 7.35 5.055 7.338 1.593-2.308 3.199-4.703.238-.327 9.169-13.358a4.177 4.177 0 0 0-1.129-5.77" fill="white"/>
</svg>
